<svg width="24" height="24" viewBox="0 0 24 24" fill="none" xmlns="http://www.w3.org/2000/svg">
<path d="M19.9042 15.2656C19.6079 15.95 19.2573 16.58 18.851 17.1591C18.2972 17.9487 17.8438 18.4953 17.4944 18.7987C16.9527 19.2969 16.3723 19.552 15.7508 19.5666C15.3046 19.5666 14.7665 19.4396 14.1402 19.182C13.5118 18.9257 12.9343 18.7987 12.4063 18.7987C11.8525 18.7987 11.2586 18.9257 10.6233 19.182C9.98701 19.4396 9.47446 19.5738 9.08257 19.5871C8.48659 19.6125 7.89253 19.3501 7.29957 18.7987C6.92111 18.4687 6.44772 17.9028 5.88064 17.1011C5.27219 16.245 4.77197 15.2523 4.38009 14.1206C3.96039 12.8981 3.75 11.7143 3.75 10.5683C3.75 9.25555 4.03367 8.1233 4.60184 7.17448C5.04838 6.41236 5.64243 5.81117 6.38594 5.36983C7.12944 4.92849 7.9328 4.70359 8.79794 4.6892C9.27132 4.6892 9.8921 4.83563 10.6635 5.1234C11.4328 5.41215 11.9267 5.55858 12.1433 5.55858C12.3052 5.55858 12.8539 5.38736 13.7841 5.04602C14.6637 4.72946 15.4062 4.59839 16.0144 4.65002C17.6624 4.78303 18.9006 5.4327 19.724 6.60316C18.2501 7.49624 17.521 8.7471 17.5355 10.3518C17.5488 11.6017 18.0022 12.6418 18.8933 13.4676C19.2972 13.8509 19.7482 14.1472 20.25 14.3575C20.1412 14.6731 20.0263 14.9754 19.9042 15.2656ZM16.1244 0.391887C16.1244 1.37155 15.7665 2.28626 15.0531 3.1329C14.1922 4.1394 13.1509 4.721 12.0216 4.62923C12.0073 4.5117 11.9989 4.388 11.9989 4.25802C11.9989 3.31754 12.4083 2.31105 13.1354 1.4881C13.4984 1.07143 13.96 0.724971 14.5199 0.448596C15.0785 0.176344 15.6069 0.0257829 16.1038 0C16.1184 0.130966 16.1244 0.26194 16.1244 0.391875V0.391887Z" fill="white"/>
</svg>
